<?xml version="1.0" encoding="UTF-8" standalone="no"?>
<!-- Created with Inkscape (http://www.inkscape.org/) -->

<svg
   xmlns:dc="http://purl.org/dc/elements/1.1/"
   xmlns:cc="http://creativecommons.org/ns#"
   xmlns:rdf="http://www.w3.org/1999/02/22-rdf-syntax-ns#"
   xmlns:svg="http://www.w3.org/2000/svg"
   xmlns="http://www.w3.org/2000/svg"
   xmlns:sodipodi="http://sodipodi.sourceforge.net/DTD/sodipodi-0.dtd"
   xmlns:inkscape="http://www.inkscape.org/namespaces/inkscape"
   id="svg2"
   version="1.1"
   inkscape:version="0.91 r13725"
   xml:space="preserve"
   width="250.97501"
   height="83.324997"
   viewBox="0 0 250.97501 83.324997"
   sodipodi:docname="samsung.svg"><metadata
     id="metadata8"><rdf:RDF><cc:Work
         rdf:about=""><dc:format>image/svg+xml</dc:format><dc:type
           rdf:resource="http://purl.org/dc/dcmitype/StillImage" /><dc:title></dc:title></cc:Work></rdf:RDF></metadata><defs
     id="defs6" /><sodipodi:namedview
     pagecolor="#ffffff"
     bordercolor="#666666"
     borderopacity="1"
     objecttolerance="10"
     gridtolerance="10"
     guidetolerance="10"
     inkscape:pageopacity="0"
     inkscape:pageshadow="2"
     inkscape:window-width="787"
     inkscape:window-height="480"
     id="namedview4"
     showgrid="false"
     inkscape:zoom="1.9802769"
     inkscape:cx="125.4875"
     inkscape:cy="41.662498"
     inkscape:window-x="491"
     inkscape:window-y="214"
     inkscape:window-maximized="0"
     inkscape:current-layer="g10" /><g
     id="g10"
     inkscape:groupmode="layer"
     inkscape:label="ink_ext_XXXXXX"
     transform="matrix(1.25,0,0,-1.25,0,83.325)"><g
       id="g12"
       transform="scale(0.1,0.1)"><path
         d="m 1544.91,232.227 -76.56,0 -51.39,168.851 -0.86,0 2.86,-168.851 -53.36,0 0,211 79.76,0 47.5,-162.204 1.11,0 -2.81,162.204 53.75,0 0,-211 z m -237.05,58.5 c 0.08,-3.997 -0.31,-11.981 -0.53,-14.028 -3.28,-35.129 -28.39,-52.976 -74.47,-52.976 -46.25,0 -71.39,17.847 -74.65,52.976 -0.22,2.047 -0.62,10.031 -0.52,14 l 0,152.578 55.02,0 0,-157.394 c -0.06,-3.516 0.11,-6.121 0.46,-7.934 0.69,-3.5 4.16,-14.863 19.69,-14.863 15.48,0 18.97,11.363 19.69,14.828 0.31,1.848 0.49,4.598 0.49,7.969 l 0,157.394 54.82,0 c 0,0 0,-152.578 0,-152.55 z m -199.18,-19.36 c -5.86,-41.293 -46.31,-48.496 -74.9,-48.496 -47.464,0 -76.823,20.277 -76.823,61.578 l 0.031,16.84 57.512,0 0.04,-20.98 c 0,-11.395 8.03,-18.371 20.43,-18.371 11.07,0 17.54,4.449 19.79,13.57 1.03,4.254 1.48,10.453 -0.38,15.129 -10.58,26.511 -85.294,39.5 -94.376,82.511 -2.082,9.75 -2.227,18.036 -0.516,28.489 6.317,38.988 43.742,47.093 73.852,47.093 26.94,0 46.55,-5.882 58.31,-17.64 8.77,-8.785 13.21,-20.832 13.21,-35.817 l 0,-15.378 -53.78,0 0,13.566 c 0,11.617 -7.2,18.348 -18.79,18.348 -10.29,0 -16.51,-4.575 -18.53,-13.567 -0.42,-1.894 -0.83,-6.308 0.26,-10.719 5.76,-23.636 85.68,-38.085 94.43,-81.511 1.11,-5.559 2.66,-17.457 0.23,-34.645 z m -256.41,-41.308 -1.29,185.105 -0.929,0 -34.465,-185.105 -54.945,0 -34.286,185.105 -0.968,0 -1.246,-185.105 -54.461,0 4.715,213.168 87.582,0 25.503,-158.36 1.247,0 25.554,158.36 87.543,0 4.703,-213.168 -54.257,0 z m -281.618,0 -27.777,188.765 -1,0 -28.48,-188.765 -58.567,0 39.375,213.168 95.52,0 39.14,-213.168 -58.211,0 z M 2006.53,507.887 C 1979.23,664.645 1508.22,713.566 954.457,617.152 721.898,576.652 511.91,516.898 348.383,449.672 c 25.109,-0.551 43.75,-6.313 55.058,-17.602 8.848,-8.855 13.321,-21.015 13.321,-36.172 l 0,-15.546 -54.289,0 0,13.734 c 0,11.441 -6.864,18.531 -19.028,18.531 -10.199,0 -16.504,-4.609 -18.519,-13.691 -0.571,-2.535 -0.727,-6.875 0.226,-10.84 5.809,-23.754 86.434,-38.496 95.223,-82.344 1.148,-5.64 2.711,-17.695 0.254,-34.98 -5.027,-35.348 -36.094,-48.992 -75.633,-48.992 -55.187,0 -77.609,26.144 -77.609,62.175 l 0.039,17.051 58.215,0 0.027,-21.234 c 0,-11.942 8.68,-18.532 20.5,-18.532 11.195,0 17.738,4.508 20,13.743 1.055,4.242 1.508,10.476 -0.398,15.257 -10.766,27.032 -86.067,39.653 -95.332,83.344 -2.071,9.824 -2.239,18.18 -0.52,28.75 0.934,5.735 2.695,10.625 4.816,15.11 C 93.3242,332.602 -12.7813,239.27 1.23438,158.684 28.5703,1.91406 499.57,-46.9727 1053.31,49.4414 c 243.42,42.3789 462.25,105.8006 628.81,176.8826 -2.42,-0.117 -4.75,-0.379 -7.25,-0.379 -37.9,0 -71.74,14.207 -75.25,52.942 -0.63,7.051 -0.74,10 -0.76,14.027 l 0.02,89.051 c 0,3.836 0.45,10.574 0.88,14.058 4.49,37.438 34.09,52.879 75.11,52.879 31.75,0 70.69,-9.113 74.96,-52.906 0.57,-5.504 0.51,-11.367 0.5,-13.301 0,-0.019 0,-0.019 0,-0.043 l 0,-8.371 -54.85,0 0,12.555 c 0,0.273 -0.07,4.961 -0.69,7.891 -0.89,4.472 -4.7,14.828 -20.33,14.828 -15.43,0 -19.43,-10.379 -20.43,-14.844 -0.56,-2.449 -0.84,-5.965 -0.84,-9.867 l 0,-96.785 c -0.05,-3.364 0.12,-5.981 0.46,-7.922 0.28,-1.532 3.04,-14.864 20.99,-14.864 17.84,0 20.58,13.332 20.84,14.864 0.47,2.621 0.53,5.746 0.51,7.922 l 0,29.988 -21.59,0 0,32.301 76.31,0 c 0,0 0,-57.434 0,-57.45 -0.02,-3.906 -0.08,-6.808 -0.74,-14.011 -0.92,-10.157 -4.12,-18.758 -9.14,-26.114 176.7,83.864 279.54,175.688 265.7,255.114"
         style="fill:#254aa5;fill-opacity:1;fill-rule:nonzero;stroke:none"
         id="path14"
         inkscape:connector-curvature="0" /></g></g></svg>